<svg width="258" height="346" viewBox="0 0 258 346" fill="none" xmlns="http://www.w3.org/2000/svg">
<g filter="url(#filter0_d_21_321)">
<rect x="2" y="2" width="254" height="342" rx="5" fill="#1D5147" shape-rendering="crispEdges"/>
<path d="M74.2324 111H84.4324V113.2H80.4924V125H78.1924V113.2H74.2324V111ZM91.8371 119.96H84.4371V117.88H91.8371V119.96ZM95.7324 117.76C95.7324 118.067 95.8924 118.32 96.2124 118.52C96.5324 118.707 96.9991 118.887 97.6124 119.06C98.0791 119.167 98.4858 119.28 98.8324 119.4C99.1791 119.52 99.5458 119.7 99.9324 119.94C100.319 120.167 100.612 120.473 100.812 120.86C101.026 121.233 101.126 121.673 101.112 122.18C101.112 123.14 100.739 123.893 99.9924 124.44C99.2458 124.987 98.3191 125.26 97.2124 125.26C96.2258 125.26 95.3791 125.053 94.6724 124.64C93.9658 124.227 93.4524 123.653 93.1324 122.92L94.9924 121.84C95.3258 122.8 96.0658 123.28 97.2124 123.28C98.3458 123.28 98.9124 122.907 98.9124 122.16C98.9124 121.613 98.2791 121.187 97.0124 120.88C96.5324 120.76 96.1258 120.64 95.7924 120.52C95.4724 120.4 95.1124 120.227 94.7124 120C94.3258 119.773 94.0258 119.473 93.8124 119.1C93.6124 118.727 93.5191 118.293 93.5324 117.8C93.5324 116.88 93.8791 116.14 94.5724 115.58C95.2791 115.02 96.1524 114.74 97.1924 114.74C98.0191 114.74 98.7524 114.927 99.3924 115.3C100.046 115.66 100.546 116.167 100.892 116.82L99.0724 117.84C98.7391 117.08 98.1124 116.7 97.1924 116.7C96.7658 116.7 96.4124 116.793 96.1324 116.98C95.8658 117.167 95.7324 117.427 95.7324 117.76ZM107.454 114.74C108.614 114.74 109.541 115.113 110.234 115.86C110.941 116.593 111.294 117.593 111.294 118.86V125H109.134V119.08C109.134 118.333 108.934 117.76 108.534 117.36C108.134 116.96 107.587 116.76 106.894 116.76C106.107 116.76 105.487 117.007 105.034 117.5C104.581 117.98 104.354 118.693 104.354 119.64V125H102.194V111H104.354V116.28C105.021 115.253 106.054 114.74 107.454 114.74ZM114.96 113.1C114.693 113.367 114.373 113.5 114 113.5C113.626 113.5 113.3 113.367 113.02 113.1C112.753 112.82 112.62 112.493 112.62 112.12C112.62 111.747 112.753 111.427 113.02 111.16C113.286 110.88 113.613 110.74 114 110.74C114.386 110.74 114.713 110.88 114.98 111.16C115.246 111.427 115.38 111.747 115.38 112.12C115.38 112.493 115.24 112.82 114.96 113.1ZM115.08 125H112.92V115H115.08V125ZM119.048 115V116.68C119.594 115.44 120.621 114.82 122.128 114.82V117.16C121.314 117.107 120.594 117.307 119.968 117.76C119.354 118.2 119.048 118.933 119.048 119.96V125H116.888V115H119.048ZM128.858 115V117.08H126.378V121.88C126.378 122.293 126.471 122.593 126.658 122.78C126.844 122.953 127.118 123.053 127.478 123.08C127.851 123.093 128.311 123.087 128.858 123.06V125C127.204 125.2 126.018 125.06 125.298 124.58C124.578 124.087 124.218 123.187 124.218 121.88V117.08H122.378V115H124.218V112.84L126.378 112.2V115H128.858ZM142.474 116.48V115H144.594V124.54C144.594 126.06 144.094 127.227 143.094 128.04C142.108 128.853 140.894 129.26 139.454 129.26C137.148 129.26 135.568 128.453 134.714 126.84L136.574 125.76C137.094 126.787 138.068 127.3 139.494 127.3C140.428 127.3 141.154 127.053 141.674 126.56C142.208 126.08 142.474 125.407 142.474 124.54V123.32C141.661 124.48 140.501 125.06 138.994 125.06C137.594 125.06 136.401 124.56 135.414 123.56C134.441 122.547 133.954 121.327 133.954 119.9C133.954 118.46 134.441 117.247 135.414 116.26C136.388 115.247 137.581 114.74 138.994 114.74C140.501 114.74 141.661 115.32 142.474 116.48ZM137.014 122.14C137.628 122.74 138.388 123.04 139.294 123.04C140.201 123.04 140.954 122.74 141.554 122.14C142.168 121.54 142.474 120.793 142.474 119.9C142.474 119.007 142.168 118.26 141.554 117.66C140.954 117.06 140.201 116.76 139.294 116.76C138.388 116.76 137.628 117.06 137.014 117.66C136.414 118.26 136.114 119.007 136.114 119.9C136.114 120.793 136.414 121.54 137.014 122.14ZM148.572 115V116.68C149.119 115.44 150.145 114.82 151.652 114.82V117.16C150.839 117.107 150.119 117.307 149.492 117.76C148.879 118.2 148.572 118.933 148.572 119.96V125H146.412V115H148.572ZM161.739 120.92H153.779C153.939 121.667 154.299 122.247 154.859 122.66C155.432 123.073 156.139 123.28 156.979 123.28C158.112 123.28 158.972 122.867 159.559 122.04L161.339 123.08C160.366 124.533 158.906 125.26 156.959 125.26C155.346 125.26 154.032 124.767 153.019 123.78C152.019 122.78 151.519 121.52 151.519 120C151.519 118.52 152.012 117.273 152.999 116.26C153.972 115.247 155.239 114.74 156.799 114.74C158.252 114.74 159.452 115.253 160.399 116.28C161.346 117.307 161.819 118.553 161.819 120.02C161.819 120.287 161.792 120.587 161.739 120.92ZM153.759 119.16H159.639C159.492 118.373 159.159 117.767 158.639 117.34C158.132 116.913 157.512 116.7 156.779 116.7C155.979 116.7 155.312 116.92 154.779 117.36C154.246 117.8 153.906 118.4 153.759 119.16ZM172.621 120.92H164.661C164.821 121.667 165.181 122.247 165.741 122.66C166.315 123.073 167.021 123.28 167.861 123.28C168.995 123.28 169.855 122.867 170.441 122.04L172.221 123.08C171.248 124.533 169.788 125.26 167.841 125.26C166.228 125.26 164.915 124.767 163.901 123.78C162.901 122.78 162.401 121.52 162.401 120C162.401 118.52 162.895 117.273 163.881 116.26C164.855 115.247 166.121 114.74 167.681 114.74C169.135 114.74 170.335 115.253 171.281 116.28C172.228 117.307 172.701 118.553 172.701 120.02C172.701 120.287 172.675 120.587 172.621 120.92ZM164.641 119.16H170.521C170.375 118.373 170.041 117.767 169.521 117.34C169.015 116.913 168.395 116.7 167.661 116.7C166.861 116.7 166.195 116.92 165.661 117.36C165.128 117.8 164.788 118.4 164.641 119.16ZM179.162 114.74C180.322 114.74 181.248 115.113 181.942 115.86C182.648 116.593 183.002 117.593 183.002 118.86V125H180.842V119.08C180.842 118.333 180.642 117.76 180.242 117.36C179.842 116.96 179.295 116.76 178.602 116.76C177.815 116.76 177.195 117.007 176.742 117.5C176.288 117.98 176.062 118.693 176.062 119.64V125H173.902V115H176.062V116.28C176.728 115.253 177.762 114.74 179.162 114.74Z" fill="white"/>
<path d="M64.3812 154.8H66.0612V166H64.5892V157.248L60.9252 163.344H60.7332L57.0692 157.264V166H55.5812V154.8H57.2612L60.8292 160.72L64.3812 154.8ZM74.3762 159.376V158H75.7682V166H74.3762V164.624C73.6936 165.68 72.6856 166.208 71.3522 166.208C70.2216 166.208 69.2669 165.803 68.4882 164.992C67.6989 164.171 67.3042 163.173 67.3042 162C67.3042 160.837 67.6989 159.845 68.4882 159.024C69.2776 158.203 70.2322 157.792 71.3522 157.792C72.6856 157.792 73.6936 158.32 74.3762 159.376ZM71.5282 164.864C72.3389 164.864 73.0162 164.592 73.5602 164.048C74.1042 163.483 74.3762 162.8 74.3762 162C74.3762 161.189 74.1042 160.512 73.5602 159.968C73.0162 159.413 72.3389 159.136 71.5282 159.136C70.7282 159.136 70.0562 159.413 69.5122 159.968C68.9682 160.512 68.6962 161.189 68.6962 162C68.6962 162.8 68.9682 163.483 69.5122 164.048C70.0562 164.592 70.7282 164.864 71.5282 164.864ZM81.6692 158V159.344H79.5412V163.68C79.5412 164.075 79.6159 164.357 79.7652 164.528C79.9252 164.688 80.1652 164.773 80.4852 164.784C80.8052 164.784 81.1999 164.773 81.6692 164.752V166C80.4426 166.16 79.5466 166.059 78.9812 165.696C78.4266 165.333 78.1492 164.661 78.1492 163.68V159.344H76.5652V158H78.1492V156.176L79.5412 155.76V158H81.6692ZM90.031 162.64H83.327C83.4657 163.344 83.791 163.899 84.303 164.304C84.815 164.699 85.455 164.896 86.223 164.896C87.279 164.896 88.047 164.507 88.527 163.728L89.711 164.4C88.9217 165.605 87.7483 166.208 86.191 166.208C84.9323 166.208 83.8977 165.813 83.087 165.024C82.2977 164.213 81.903 163.205 81.903 162C81.903 160.784 82.2923 159.781 83.071 158.992C83.8497 158.192 84.8577 157.792 86.095 157.792C87.2683 157.792 88.223 158.208 88.959 159.04C89.7057 159.851 90.079 160.843 90.079 162.016C90.079 162.219 90.063 162.427 90.031 162.64ZM86.095 159.104C85.359 159.104 84.7403 159.312 84.239 159.728C83.7483 160.144 83.4443 160.709 83.327 161.424H88.671C88.5537 160.688 88.2603 160.117 87.791 159.712C87.3217 159.307 86.7563 159.104 86.095 159.104ZM92.5111 158V159.344C92.9698 158.352 93.8018 157.856 95.0071 157.856V159.312C94.3245 159.28 93.7378 159.461 93.2471 159.856C92.7565 160.251 92.5111 160.885 92.5111 161.76V166H91.1191V158H92.5111ZM96.5131 156.544C96.2465 156.544 96.0225 156.453 95.8411 156.272C95.6598 156.091 95.5691 155.872 95.5691 155.616C95.5691 155.36 95.6598 155.141 95.8411 154.96C96.0225 154.768 96.2465 154.672 96.5131 154.672C96.7691 154.672 96.9878 154.768 97.1691 154.96C97.3505 155.141 97.4411 155.36 97.4411 155.616C97.4411 155.872 97.3505 156.091 97.1691 156.272C96.9878 156.453 96.7691 156.544 96.5131 156.544ZM97.2011 166H95.8091V158H97.2011V166ZM105.389 159.376V158H106.781V166H105.389V164.624C104.706 165.68 103.698 166.208 102.365 166.208C101.234 166.208 100.279 165.803 99.5007 164.992C98.7114 164.171 98.3167 163.173 98.3167 162C98.3167 160.837 98.7114 159.845 99.5007 159.024C100.29 158.203 101.245 157.792 102.365 157.792C103.698 157.792 104.706 158.32 105.389 159.376ZM102.541 164.864C103.351 164.864 104.029 164.592 104.573 164.048C105.117 163.483 105.389 162.8 105.389 162C105.389 161.189 105.117 160.512 104.573 159.968C104.029 159.413 103.351 159.136 102.541 159.136C101.741 159.136 101.069 159.413 100.525 159.968C99.9807 160.512 99.7087 161.189 99.7087 162C99.7087 162.8 99.9807 163.483 100.525 164.048C101.069 164.592 101.741 164.864 102.541 164.864ZM109.722 166H108.33V154.32H109.722V166ZM112.165 159.888C111.877 159.888 111.632 159.787 111.429 159.584C111.227 159.381 111.125 159.136 111.125 158.848C111.125 158.56 111.227 158.315 111.429 158.112C111.632 157.909 111.877 157.808 112.165 157.808C112.464 157.808 112.709 157.909 112.901 158.112C113.104 158.315 113.205 158.56 113.205 158.848C113.205 159.136 113.104 159.381 112.901 159.584C112.709 159.787 112.464 159.888 112.165 159.888ZM112.165 166.176C111.877 166.176 111.632 166.075 111.429 165.872C111.227 165.669 111.125 165.424 111.125 165.136C111.125 164.848 111.227 164.603 111.429 164.4C111.632 164.197 111.877 164.096 112.165 164.096C112.464 164.096 112.709 164.197 112.901 164.4C113.104 164.603 113.205 164.848 113.205 165.136C113.205 165.424 113.104 165.669 112.901 165.872C112.709 166.075 112.464 166.176 112.165 166.176ZM123.464 166.208C121.757 166.208 120.355 165.648 119.256 164.528C118.157 163.419 117.608 162.043 117.608 160.4C117.608 158.757 118.157 157.381 119.256 156.272C120.355 155.152 121.757 154.592 123.464 154.592C124.477 154.592 125.416 154.837 126.28 155.328C127.144 155.819 127.816 156.48 128.296 157.312L127 158.064C126.68 157.445 126.2 156.955 125.56 156.592C124.931 156.219 124.232 156.032 123.464 156.032C122.163 156.032 121.107 156.448 120.296 157.28C119.485 158.101 119.08 159.141 119.08 160.4C119.08 161.648 119.485 162.683 120.296 163.504C121.107 164.336 122.163 164.752 123.464 164.752C124.232 164.752 124.931 164.571 125.56 164.208C126.2 163.835 126.68 163.344 127 162.736L128.296 163.472C127.827 164.304 127.16 164.971 126.296 165.472C125.443 165.963 124.499 166.208 123.464 166.208ZM135.998 164.992C135.187 165.803 134.19 166.208 133.006 166.208C131.822 166.208 130.825 165.803 130.014 164.992C129.203 164.181 128.798 163.184 128.798 162C128.798 160.816 129.203 159.819 130.014 159.008C130.825 158.197 131.822 157.792 133.006 157.792C134.19 157.792 135.187 158.197 135.998 159.008C136.819 159.829 137.23 160.827 137.23 162C137.23 163.173 136.819 164.171 135.998 164.992ZM133.006 164.848C133.806 164.848 134.478 164.576 135.022 164.032C135.566 163.488 135.838 162.811 135.838 162C135.838 161.189 135.566 160.512 135.022 159.968C134.478 159.424 133.806 159.152 133.006 159.152C132.217 159.152 131.55 159.424 131.006 159.968C130.462 160.512 130.19 161.189 130.19 162C130.19 162.811 130.462 163.488 131.006 164.032C131.55 164.576 132.217 164.848 133.006 164.848ZM142.491 158V159.344H140.363V163.68C140.363 164.075 140.438 164.357 140.587 164.528C140.747 164.688 140.987 164.773 141.307 164.784C141.627 164.784 142.022 164.773 142.491 164.752V166C141.264 166.16 140.368 166.059 139.803 165.696C139.248 165.333 138.971 164.661 138.971 163.68V159.344H137.387V158H138.971V156.176L140.363 155.76V158H142.491ZM147.509 158V159.344H145.381V163.68C145.381 164.075 145.456 164.357 145.605 164.528C145.765 164.688 146.005 164.773 146.325 164.784C146.645 164.784 147.04 164.773 147.509 164.752V166C146.283 166.16 145.387 166.059 144.821 165.696C144.267 165.333 143.989 164.661 143.989 163.68V159.344H142.405V158H143.989V156.176L145.381 155.76V158H147.509ZM154.943 164.992C154.132 165.803 153.135 166.208 151.951 166.208C150.767 166.208 149.77 165.803 148.959 164.992C148.148 164.181 147.743 163.184 147.743 162C147.743 160.816 148.148 159.819 148.959 159.008C149.77 158.197 150.767 157.792 151.951 157.792C153.135 157.792 154.132 158.197 154.943 159.008C155.764 159.829 156.175 160.827 156.175 162C156.175 163.173 155.764 164.171 154.943 164.992ZM151.951 164.848C152.751 164.848 153.423 164.576 153.967 164.032C154.511 163.488 154.783 162.811 154.783 162C154.783 161.189 154.511 160.512 153.967 159.968C153.423 159.424 152.751 159.152 151.951 159.152C151.162 159.152 150.495 159.424 149.951 159.968C149.407 160.512 149.135 161.189 149.135 162C149.135 162.811 149.407 163.488 149.951 164.032C150.495 164.576 151.162 164.848 151.951 164.848ZM161.24 157.792C162.179 157.792 162.931 158.091 163.496 158.688C164.061 159.275 164.344 160.075 164.344 161.088V166H162.952V161.168C162.952 160.528 162.776 160.027 162.424 159.664C162.072 159.301 161.587 159.12 160.968 159.12C160.253 159.12 159.688 159.344 159.272 159.792C158.856 160.229 158.648 160.885 158.648 161.76V166H157.256V158H158.648V159.152C159.203 158.245 160.067 157.792 161.24 157.792ZM168.335 155.824L171.279 154.8H172.559V166H171.087V156.4L168.703 157.104L168.335 155.824ZM181.478 164.624C180.732 165.68 179.67 166.208 178.294 166.208C176.918 166.208 175.857 165.68 175.11 164.624C174.353 163.557 173.974 162.149 173.974 160.4C173.974 158.651 174.353 157.243 175.11 156.176C175.857 155.12 176.918 154.592 178.294 154.592C179.67 154.592 180.732 155.12 181.478 156.176C182.236 157.243 182.614 158.651 182.614 160.4C182.614 162.149 182.236 163.557 181.478 164.624ZM175.462 160.4C175.462 161.787 175.708 162.859 176.198 163.616C176.689 164.373 177.388 164.752 178.294 164.752C179.201 164.752 179.9 164.373 180.39 163.616C180.892 162.859 181.142 161.787 181.142 160.4C181.142 159.013 180.892 157.941 180.39 157.184C179.9 156.416 179.201 156.032 178.294 156.032C177.388 156.032 176.689 156.411 176.198 157.168C175.708 157.925 175.462 159.003 175.462 160.4ZM190.996 164.624C190.25 165.68 189.188 166.208 187.812 166.208C186.436 166.208 185.375 165.68 184.628 164.624C183.871 163.557 183.492 162.149 183.492 160.4C183.492 158.651 183.871 157.243 184.628 156.176C185.375 155.12 186.436 154.592 187.812 154.592C189.188 154.592 190.25 155.12 190.996 156.176C191.754 157.243 192.132 158.651 192.132 160.4C192.132 162.149 191.754 163.557 190.996 164.624ZM184.98 160.4C184.98 161.787 185.226 162.859 185.716 163.616C186.207 164.373 186.906 164.752 187.812 164.752C188.719 164.752 189.418 164.373 189.908 163.616C190.41 162.859 190.66 161.787 190.66 160.4C190.66 159.013 190.41 157.941 189.908 157.184C189.418 156.416 188.719 156.032 187.812 156.032C186.906 156.032 186.207 156.411 185.716 157.168C185.226 157.925 184.98 159.003 184.98 160.4ZM195.386 159.552C194.661 159.552 194.058 159.312 193.578 158.832C193.098 158.352 192.858 157.765 192.858 157.072C192.858 156.389 193.098 155.808 193.578 155.328C194.069 154.837 194.671 154.592 195.386 154.592C196.111 154.592 196.714 154.832 197.194 155.312C197.674 155.792 197.914 156.379 197.914 157.072C197.914 157.765 197.674 158.352 197.194 158.832C196.725 159.312 196.122 159.552 195.386 159.552ZM194.106 157.072C194.106 157.445 194.223 157.76 194.458 158.016C194.703 158.261 195.013 158.384 195.386 158.384C195.759 158.384 196.063 158.256 196.298 158C196.543 157.744 196.666 157.435 196.666 157.072C196.666 156.709 196.543 156.405 196.298 156.16C196.063 155.904 195.759 155.776 195.386 155.776C195.013 155.776 194.703 155.904 194.458 156.16C194.223 156.405 194.106 156.709 194.106 157.072ZM194.378 164.864L193.61 164.416L201.05 156.096L201.834 156.528L194.378 164.864ZM202.746 163.712C202.746 164.405 202.506 164.992 202.026 165.472C201.546 165.952 200.943 166.192 200.218 166.192C199.493 166.192 198.89 165.952 198.41 165.472C197.93 164.992 197.69 164.405 197.69 163.712C197.69 163.019 197.93 162.432 198.41 161.952C198.89 161.472 199.493 161.232 200.218 161.232C200.943 161.232 201.546 161.472 202.026 161.952C202.506 162.432 202.746 163.019 202.746 163.712ZM199.29 164.64C199.535 164.885 199.845 165.008 200.218 165.008C200.581 165.008 200.885 164.885 201.13 164.64C201.375 164.384 201.498 164.075 201.498 163.712C201.498 163.349 201.375 163.045 201.13 162.8C200.895 162.544 200.591 162.416 200.218 162.416C199.845 162.416 199.535 162.544 199.29 162.8C199.055 163.045 198.938 163.349 198.938 163.712C198.938 164.075 199.055 164.384 199.29 164.64Z" fill="white"/>
<path d="M65.6 200H64.016L63.104 197.488H58.064L57.152 200H55.568L59.744 188.8H61.424L65.6 200ZM60.576 190.576L58.576 196.096H62.592L60.576 190.576ZM68.9928 198.512L71.5048 192H73.0088L69.8088 200H68.1768L64.9768 192H66.4808L68.9928 198.512ZM79.9375 193.376V192H81.3295V200H79.9375V198.624C79.2548 199.68 78.2468 200.208 76.9135 200.208C75.7828 200.208 74.8282 199.803 74.0495 198.992C73.2602 198.171 72.8655 197.173 72.8655 196C72.8655 194.837 73.2602 193.845 74.0495 193.024C74.8388 192.203 75.7935 191.792 76.9135 191.792C78.2468 191.792 79.2548 192.32 79.9375 193.376ZM77.0895 198.864C77.9002 198.864 78.5775 198.592 79.1215 198.048C79.6655 197.483 79.9375 196.8 79.9375 196C79.9375 195.189 79.6655 194.512 79.1215 193.968C78.5775 193.413 77.9002 193.136 77.0895 193.136C76.2895 193.136 75.6175 193.413 75.0735 193.968C74.5295 194.512 74.2575 195.189 74.2575 196C74.2575 196.8 74.5295 197.483 75.0735 198.048C75.6175 198.592 76.2895 198.864 77.0895 198.864ZM83.5825 190.544C83.3158 190.544 83.0918 190.453 82.9105 190.272C82.7292 190.091 82.6385 189.872 82.6385 189.616C82.6385 189.36 82.7292 189.141 82.9105 188.96C83.0918 188.768 83.3158 188.672 83.5825 188.672C83.8385 188.672 84.0572 188.768 84.2385 188.96C84.4198 189.141 84.5105 189.36 84.5105 189.616C84.5105 189.872 84.4198 190.091 84.2385 190.272C84.0572 190.453 83.8385 190.544 83.5825 190.544ZM84.2705 200H82.8785V192H84.2705V200ZM87.2261 200H85.8341V188.32H87.2261V200ZM95.4138 193.376V192H96.8058V200H95.4138V198.624C94.7311 199.68 93.7231 200.208 92.3898 200.208C91.2591 200.208 90.3044 199.803 89.5258 198.992C88.7364 198.171 88.3418 197.173 88.3418 196C88.3418 194.837 88.7364 193.845 89.5258 193.024C90.3151 192.203 91.2698 191.792 92.3898 191.792C93.7231 191.792 94.7311 192.32 95.4138 193.376ZM92.5658 198.864C93.3764 198.864 94.0538 198.592 94.5978 198.048C95.1418 197.483 95.4138 196.8 95.4138 196C95.4138 195.189 95.1418 194.512 94.5978 193.968C94.0538 193.413 93.3764 193.136 92.5658 193.136C91.7658 193.136 91.0938 193.413 90.5498 193.968C90.0058 194.512 89.7338 195.189 89.7338 196C89.7338 196.8 90.0058 197.483 90.5498 198.048C91.0938 198.592 91.7658 198.864 92.5658 198.864ZM102.771 191.792C103.891 191.792 104.845 192.203 105.635 193.024C106.424 193.845 106.819 194.837 106.819 196C106.819 197.173 106.424 198.171 105.635 198.992C104.856 199.803 103.901 200.208 102.771 200.208C101.448 200.208 100.44 199.68 99.7468 198.624V200H98.3548V188.8H99.7468V193.376C100.44 192.32 101.448 191.792 102.771 191.792ZM102.595 198.864C103.395 198.864 104.067 198.592 104.611 198.048C105.155 197.483 105.427 196.8 105.427 196C105.427 195.189 105.155 194.512 104.611 193.968C104.067 193.413 103.395 193.136 102.595 193.136C101.784 193.136 101.107 193.413 100.563 193.968C100.019 194.512 99.7468 195.189 99.7468 196C99.7468 196.8 100.019 197.483 100.563 198.048C101.107 198.592 101.784 198.864 102.595 198.864ZM109.312 200H107.92V188.32H109.312V200ZM118.555 196.64H111.851C111.99 197.344 112.315 197.899 112.827 198.304C113.339 198.699 113.979 198.896 114.747 198.896C115.803 198.896 116.571 198.507 117.051 197.728L118.235 198.4C117.446 199.605 116.273 200.208 114.715 200.208C113.457 200.208 112.422 199.813 111.611 199.024C110.822 198.213 110.427 197.205 110.427 196C110.427 194.784 110.817 193.781 111.595 192.992C112.374 192.192 113.382 191.792 114.619 191.792C115.793 191.792 116.747 192.208 117.483 193.04C118.23 193.851 118.603 194.843 118.603 196.016C118.603 196.219 118.587 196.427 118.555 196.64ZM114.619 193.104C113.883 193.104 113.265 193.312 112.763 193.728C112.273 194.144 111.969 194.709 111.851 195.424H117.195C117.078 194.688 116.785 194.117 116.315 193.712C115.846 193.307 115.281 193.104 114.619 193.104ZM124.284 194.16C124.284 194.672 124.812 195.072 125.868 195.36C126.262 195.445 126.593 195.536 126.86 195.632C127.137 195.717 127.436 195.851 127.756 196.032C128.086 196.213 128.337 196.453 128.508 196.752C128.678 197.051 128.764 197.403 128.764 197.808C128.764 198.533 128.481 199.115 127.916 199.552C127.35 199.989 126.636 200.208 125.772 200.208C125.004 200.208 124.337 200.043 123.772 199.712C123.217 199.371 122.822 198.912 122.588 198.336L123.788 197.648C123.916 198.032 124.156 198.336 124.508 198.56C124.86 198.784 125.281 198.896 125.772 198.896C126.252 198.896 126.636 198.805 126.924 198.624C127.212 198.443 127.356 198.171 127.356 197.808C127.356 197.264 126.828 196.869 125.772 196.624C125.42 196.528 125.153 196.453 124.972 196.4C124.79 196.347 124.54 196.251 124.22 196.112C123.91 195.973 123.676 195.829 123.516 195.68C123.356 195.52 123.206 195.312 123.068 195.056C122.94 194.789 122.876 194.496 122.876 194.176C122.876 193.483 123.142 192.912 123.676 192.464C124.22 192.016 124.897 191.792 125.708 191.792C126.358 191.792 126.934 191.941 127.436 192.24C127.948 192.528 128.332 192.933 128.588 193.456L127.42 194.112C127.132 193.429 126.561 193.088 125.708 193.088C125.302 193.088 124.961 193.184 124.684 193.376C124.417 193.568 124.284 193.829 124.284 194.16ZM130.477 190.544C130.211 190.544 129.987 190.453 129.805 190.272C129.624 190.091 129.533 189.872 129.533 189.616C129.533 189.36 129.624 189.141 129.805 188.96C129.987 188.768 130.211 188.672 130.477 188.672C130.733 188.672 130.952 188.768 131.133 188.96C131.315 189.141 131.405 189.36 131.405 189.616C131.405 189.872 131.315 190.091 131.133 190.272C130.952 190.453 130.733 190.544 130.477 190.544ZM131.165 200H129.773V192H131.165V200ZM138.441 192.928L134.345 198.672H138.601V200H132.441V199.072L136.521 193.328H132.601V192H138.441V192.928ZM146.88 196.64H140.176C140.315 197.344 140.64 197.899 141.152 198.304C141.664 198.699 142.304 198.896 143.072 198.896C144.128 198.896 144.896 198.507 145.376 197.728L146.56 198.4C145.771 199.605 144.598 200.208 143.04 200.208C141.782 200.208 140.747 199.813 139.936 199.024C139.147 198.213 138.752 197.205 138.752 196C138.752 194.784 139.142 193.781 139.92 192.992C140.699 192.192 141.707 191.792 142.944 191.792C144.118 191.792 145.072 192.208 145.808 193.04C146.555 193.851 146.928 194.843 146.928 196.016C146.928 196.219 146.912 196.427 146.88 196.64ZM142.944 193.104C142.208 193.104 141.59 193.312 141.088 193.728C140.598 194.144 140.294 194.709 140.176 195.424H145.52C145.403 194.688 145.11 194.117 144.64 193.712C144.171 193.307 143.606 193.104 142.944 193.104ZM148.856 194.16C148.856 194.672 149.384 195.072 150.44 195.36C150.835 195.445 151.165 195.536 151.432 195.632C151.709 195.717 152.008 195.851 152.328 196.032C152.659 196.213 152.909 196.453 153.08 196.752C153.251 197.051 153.336 197.403 153.336 197.808C153.336 198.533 153.053 199.115 152.488 199.552C151.923 199.989 151.208 200.208 150.344 200.208C149.576 200.208 148.909 200.043 148.344 199.712C147.789 199.371 147.395 198.912 147.16 198.336L148.36 197.648C148.488 198.032 148.728 198.336 149.08 198.56C149.432 198.784 149.853 198.896 150.344 198.896C150.824 198.896 151.208 198.805 151.496 198.624C151.784 198.443 151.928 198.171 151.928 197.808C151.928 197.264 151.4 196.869 150.344 196.624C149.992 196.528 149.725 196.453 149.544 196.4C149.363 196.347 149.112 196.251 148.792 196.112C148.483 195.973 148.248 195.829 148.088 195.68C147.928 195.52 147.779 195.312 147.64 195.056C147.512 194.789 147.448 194.496 147.448 194.176C147.448 193.483 147.715 192.912 148.248 192.464C148.792 192.016 149.469 191.792 150.28 191.792C150.931 191.792 151.507 191.941 152.008 192.24C152.52 192.528 152.904 192.933 153.16 193.456L151.992 194.112C151.704 193.429 151.133 193.088 150.28 193.088C149.875 193.088 149.533 193.184 149.256 193.376C148.989 193.568 148.856 193.829 148.856 194.16ZM155.132 193.888C154.844 193.888 154.599 193.787 154.396 193.584C154.194 193.381 154.092 193.136 154.092 192.848C154.092 192.56 154.194 192.315 154.396 192.112C154.599 191.909 154.844 191.808 155.132 191.808C155.431 191.808 155.676 191.909 155.868 192.112C156.071 192.315 156.172 192.56 156.172 192.848C156.172 193.136 156.071 193.381 155.868 193.584C155.676 193.787 155.431 193.888 155.132 193.888ZM155.132 200.176C154.844 200.176 154.599 200.075 154.396 199.872C154.194 199.669 154.092 199.424 154.092 199.136C154.092 198.848 154.194 198.603 154.396 198.4C154.599 198.197 154.844 198.096 155.132 198.096C155.431 198.096 155.676 198.197 155.868 198.4C156.071 198.603 156.172 198.848 156.172 199.136C156.172 199.424 156.071 199.669 155.868 199.872C155.676 200.075 155.431 200.176 155.132 200.176ZM164.783 200.208C163.738 200.208 162.842 199.968 162.095 199.488C161.359 198.997 160.842 198.32 160.543 197.456L161.823 196.72C162.25 198.075 163.247 198.752 164.815 198.752C165.572 198.752 166.154 198.597 166.559 198.288C166.975 197.979 167.183 197.557 167.183 197.024C167.183 196.501 166.98 196.101 166.575 195.824C166.212 195.579 165.535 195.296 164.543 194.976L163.471 194.624C163.236 194.528 162.927 194.389 162.543 194.208C162.17 194.016 161.898 193.824 161.727 193.632C161.258 193.12 161.023 192.496 161.023 191.76C161.023 190.779 161.364 190.011 162.047 189.456C162.73 188.88 163.562 188.592 164.543 188.592C165.418 188.592 166.186 188.811 166.847 189.248C167.508 189.685 168.004 190.283 168.335 191.04L167.087 191.76C166.607 190.608 165.759 190.032 164.543 190.032C163.935 190.032 163.444 190.181 163.071 190.48C162.698 190.779 162.511 191.184 162.511 191.696C162.511 192.187 162.687 192.56 163.039 192.816C163.402 193.083 164.01 193.349 164.863 193.616L165.519 193.824C165.882 193.963 166.079 194.037 166.111 194.048C166.452 194.176 166.826 194.352 167.231 194.576C167.519 194.736 167.807 194.981 168.095 195.312C168.468 195.685 168.655 196.245 168.655 196.992C168.655 197.973 168.298 198.757 167.583 199.344C166.858 199.92 165.924 200.208 164.783 200.208ZM170.645 193.888C170.357 193.888 170.112 193.787 169.909 193.584C169.706 193.381 169.605 193.136 169.605 192.848C169.605 192.56 169.706 192.315 169.909 192.112C170.112 191.909 170.357 191.808 170.645 191.808C170.944 191.808 171.189 191.909 171.381 192.112C171.584 192.315 171.685 192.56 171.685 192.848C171.685 193.136 171.584 193.381 171.381 193.584C171.189 193.787 170.944 193.888 170.645 193.888ZM170.021 198.352H171.621L170.581 202.24H169.381L170.021 198.352ZM185.459 188.8H187.139V200H185.667V191.248L182.003 197.344H181.811L178.147 191.264V200H176.659V188.8H178.339L181.907 194.72L185.459 188.8ZM189.934 193.888C189.646 193.888 189.4 193.787 189.198 193.584C188.995 193.381 188.894 193.136 188.894 192.848C188.894 192.56 188.995 192.315 189.198 192.112C189.4 191.909 189.646 191.808 189.934 191.808C190.232 191.808 190.478 191.909 190.67 192.112C190.872 192.315 190.974 192.56 190.974 192.848C190.974 193.136 190.872 193.381 190.67 193.584C190.478 193.787 190.232 193.888 189.934 193.888ZM189.31 198.352H190.91L189.87 202.24H188.67L189.31 198.352ZM197.435 188.8V198.592H202.267V200H195.947V188.8H197.435Z" fill="white"/>
<path d="M62.8352 222.8V224.208H57.8752V227.84H62.6272V229.248H57.8752V234H56.3872V222.8H62.8352ZM70.6852 232.992C69.8745 233.803 68.8772 234.208 67.6932 234.208C66.5092 234.208 65.5119 233.803 64.7012 232.992C63.8905 232.181 63.4852 231.184 63.4852 230C63.4852 228.816 63.8905 227.819 64.7012 227.008C65.5119 226.197 66.5092 225.792 67.6932 225.792C68.8772 225.792 69.8745 226.197 70.6852 227.008C71.5065 227.829 71.9172 228.827 71.9172 230C71.9172 231.173 71.5065 232.171 70.6852 232.992ZM67.6932 232.848C68.4932 232.848 69.1652 232.576 69.7092 232.032C70.2532 231.488 70.5252 230.811 70.5252 230C70.5252 229.189 70.2532 228.512 69.7092 227.968C69.1652 227.424 68.4932 227.152 67.6932 227.152C66.9039 227.152 66.2372 227.424 65.6932 227.968C65.1492 228.512 64.8772 229.189 64.8772 230C64.8772 230.811 65.1492 231.488 65.6932 232.032C66.2372 232.576 66.9039 232.848 67.6932 232.848ZM74.3902 226V227.344C74.8489 226.352 75.6809 225.856 76.8862 225.856V227.312C76.2035 227.28 75.6169 227.461 75.1262 227.856C74.6355 228.251 74.3902 228.885 74.3902 229.76V234H72.9982V226H74.3902ZM78.5682 227.888C78.2802 227.888 78.0349 227.787 77.8322 227.584C77.6295 227.381 77.5282 227.136 77.5282 226.848C77.5282 226.56 77.6295 226.315 77.8322 226.112C78.0349 225.909 78.2802 225.808 78.5682 225.808C78.8669 225.808 79.1122 225.909 79.3042 226.112C79.5069 226.315 79.6082 226.56 79.6082 226.848C79.6082 227.136 79.5069 227.381 79.3042 227.584C79.1122 227.787 78.8669 227.888 78.5682 227.888ZM78.5682 234.176C78.2802 234.176 78.0349 234.075 77.8322 233.872C77.6295 233.669 77.5282 233.424 77.5282 233.136C77.5282 232.848 77.6295 232.603 77.8322 232.4C78.0349 232.197 78.2802 232.096 78.5682 232.096C78.8669 232.096 79.1122 232.197 79.3042 232.4C79.5069 232.603 79.6082 232.848 79.6082 233.136C79.6082 233.424 79.5069 233.669 79.3042 233.872C79.1122 234.075 78.8669 234.176 78.5682 234.176ZM93.4028 222.8H95.0828V234H93.6108V225.248L89.9468 231.344H89.7548L86.0908 225.264V234H84.6028V222.8H86.2828L89.8508 228.72L93.4028 222.8ZM103.398 227.376V226H104.79V234H103.398V232.624C102.715 233.68 101.707 234.208 100.374 234.208C99.2431 234.208 98.2885 233.803 97.5098 232.992C96.7205 232.171 96.3258 231.173 96.3258 230C96.3258 228.837 96.7205 227.845 97.5098 227.024C98.2991 226.203 99.2538 225.792 100.374 225.792C101.707 225.792 102.715 226.32 103.398 227.376ZM100.55 232.864C101.36 232.864 102.038 232.592 102.582 232.048C103.126 231.483 103.398 230.8 103.398 230C103.398 229.189 103.126 228.512 102.582 227.968C102.038 227.413 101.36 227.136 100.55 227.136C99.7498 227.136 99.0778 227.413 98.5338 227.968C97.9898 228.512 97.7178 229.189 97.7178 230C97.7178 230.8 97.9898 231.483 98.5338 232.048C99.0778 232.592 99.7498 232.864 100.55 232.864ZM107.731 234H106.339V222.32H107.731V234ZM116.974 230.64H110.27C110.409 231.344 110.734 231.899 111.246 232.304C111.758 232.699 112.398 232.896 113.166 232.896C114.222 232.896 114.99 232.507 115.47 231.728L116.654 232.4C115.865 233.605 114.692 234.208 113.134 234.208C111.876 234.208 110.841 233.813 110.03 233.024C109.241 232.213 108.846 231.205 108.846 230C108.846 228.784 109.236 227.781 110.014 226.992C110.793 226.192 111.801 225.792 113.038 225.792C114.212 225.792 115.166 226.208 115.902 227.04C116.649 227.851 117.022 228.843 117.022 230.016C117.022 230.219 117.006 230.427 116.974 230.64ZM113.038 227.104C112.302 227.104 111.684 227.312 111.182 227.728C110.692 228.144 110.388 228.709 110.27 229.424H115.614C115.497 228.688 115.204 228.117 114.734 227.712C114.265 227.307 113.7 227.104 113.038 227.104ZM128.127 227.376V226H129.519V234H128.127V232.624C127.444 233.68 126.436 234.208 125.103 234.208C123.972 234.208 123.017 233.803 122.239 232.992C121.449 232.171 121.055 231.173 121.055 230C121.055 228.837 121.449 227.845 122.239 227.024C123.028 226.203 123.983 225.792 125.103 225.792C126.436 225.792 127.444 226.32 128.127 227.376ZM125.279 232.864C126.089 232.864 126.767 232.592 127.311 232.048C127.855 231.483 128.127 230.8 128.127 230C128.127 229.189 127.855 228.512 127.311 227.968C126.767 227.413 126.089 227.136 125.279 227.136C124.479 227.136 123.807 227.413 123.263 227.968C122.719 228.512 122.447 229.189 122.447 230C122.447 230.8 122.719 231.483 123.263 232.048C123.807 232.592 124.479 232.864 125.279 232.864ZM135.052 225.792C135.99 225.792 136.742 226.091 137.308 226.688C137.873 227.275 138.156 228.075 138.156 229.088V234H136.764V229.168C136.764 228.528 136.588 228.027 136.236 227.664C135.884 227.301 135.398 227.12 134.78 227.12C134.065 227.12 133.5 227.344 133.084 227.792C132.668 228.229 132.46 228.885 132.46 229.76V234H131.068V226H132.46V227.152C133.014 226.245 133.878 225.792 135.052 225.792ZM146.163 227.376V222.8H147.555V234H146.163V232.624C145.48 233.68 144.472 234.208 143.139 234.208C142.008 234.208 141.053 233.803 140.275 232.992C139.485 232.171 139.091 231.173 139.091 230C139.091 228.837 139.485 227.845 140.275 227.024C141.064 226.203 142.019 225.792 143.139 225.792C144.472 225.792 145.48 226.32 146.163 227.376ZM143.315 232.864C144.125 232.864 144.803 232.592 145.347 232.048C145.891 231.483 146.163 230.8 146.163 230C146.163 229.189 145.891 228.512 145.347 227.968C144.803 227.413 144.125 227.136 143.315 227.136C142.515 227.136 141.843 227.413 141.299 227.968C140.755 228.512 140.483 229.189 140.483 230C140.483 230.8 140.755 231.483 141.299 232.048C141.843 232.592 142.515 232.864 143.315 232.864ZM159.136 222.8V224.208H154.176V227.84H158.928V229.248H154.176V234H152.688V222.8H159.136ZM167.914 230.64H161.21C161.348 231.344 161.674 231.899 162.186 232.304C162.698 232.699 163.338 232.896 164.106 232.896C165.162 232.896 165.93 232.507 166.41 231.728L167.594 232.4C166.804 233.605 165.631 234.208 164.074 234.208C162.815 234.208 161.78 233.813 160.97 233.024C160.18 232.213 159.786 231.205 159.786 230C159.786 228.784 160.175 227.781 160.954 226.992C161.732 226.192 162.74 225.792 163.978 225.792C165.151 225.792 166.106 226.208 166.842 227.04C167.588 227.851 167.962 228.843 167.962 230.016C167.962 230.219 167.946 230.427 167.914 230.64ZM163.978 227.104C163.242 227.104 162.623 227.312 162.122 227.728C161.631 228.144 161.327 228.709 161.21 229.424H166.554C166.436 228.688 166.143 228.117 165.674 227.712C165.204 227.307 164.639 227.104 163.978 227.104ZM177.642 225.792C178.549 225.792 179.274 226.085 179.818 226.672C180.373 227.259 180.65 228.043 180.65 229.024V234H179.258V229.072C179.258 228.464 179.098 227.989 178.778 227.648C178.469 227.296 178.042 227.12 177.498 227.12C176.879 227.12 176.394 227.328 176.042 227.744C175.701 228.149 175.53 228.752 175.53 229.552V234H174.138V229.072C174.138 228.464 173.983 227.989 173.674 227.648C173.375 227.296 172.965 227.12 172.442 227.12C171.834 227.12 171.338 227.333 170.954 227.76C170.581 228.176 170.394 228.773 170.394 229.552V234H169.002V226H170.394V227.072C170.938 226.219 171.733 225.792 172.778 225.792C173.855 225.792 174.639 226.245 175.13 227.152C175.685 226.245 176.522 225.792 177.642 225.792ZM188.644 227.376V226H190.036V234H188.644V232.624C187.961 233.68 186.953 234.208 185.62 234.208C184.489 234.208 183.535 233.803 182.756 232.992C181.967 232.171 181.572 231.173 181.572 230C181.572 228.837 181.967 227.845 182.756 227.024C183.545 226.203 184.5 225.792 185.62 225.792C186.953 225.792 187.961 226.32 188.644 227.376ZM185.796 232.864C186.607 232.864 187.284 232.592 187.828 232.048C188.372 231.483 188.644 230.8 188.644 230C188.644 229.189 188.372 228.512 187.828 227.968C187.284 227.413 186.607 227.136 185.796 227.136C184.996 227.136 184.324 227.413 183.78 227.968C183.236 228.512 182.964 229.189 182.964 230C182.964 230.8 183.236 231.483 183.78 232.048C184.324 232.592 184.996 232.864 185.796 232.864ZM192.977 234H191.585V222.32H192.977V234ZM202.221 230.64H195.517C195.655 231.344 195.981 231.899 196.493 232.304C197.005 232.699 197.645 232.896 198.413 232.896C199.469 232.896 200.237 232.507 200.717 231.728L201.901 232.4C201.111 233.605 199.938 234.208 198.381 234.208C197.122 234.208 196.087 233.813 195.277 233.024C194.487 232.213 194.093 231.205 194.093 230C194.093 228.784 194.482 227.781 195.261 226.992C196.039 226.192 197.047 225.792 198.285 225.792C199.458 225.792 200.413 226.208 201.149 227.04C201.895 227.851 202.269 228.843 202.269 230.016C202.269 230.219 202.253 230.427 202.221 230.64ZM198.285 227.104C197.549 227.104 196.93 227.312 196.429 227.728C195.938 228.144 195.634 228.709 195.517 229.424H200.861C200.743 228.688 200.45 228.117 199.981 227.712C199.511 227.307 198.946 227.104 198.285 227.104Z" fill="white"/>
</g>
<defs>
<filter id="filter0_d_21_321" x="0" y="0" width="258" height="346" filterUnits="userSpaceOnUse" color-interpolation-filters="sRGB">
<feFlood flood-opacity="0" result="BackgroundImageFix"/>
<feColorMatrix in="SourceAlpha" type="matrix" values="0 0 0 0 0 0 0 0 0 0 0 0 0 0 0 0 0 0 127 0" result="hardAlpha"/>
<feMorphology radius="1" operator="dilate" in="SourceAlpha" result="effect1_dropShadow_21_321"/>
<feOffset/>
<feGaussianBlur stdDeviation="0.5"/>
<feComposite in2="hardAlpha" operator="out"/>
<feColorMatrix type="matrix" values="0 0 0 0 0 0 0 0 0 0 0 0 0 0 0 0 0 0 0.1 0"/>
<feBlend mode="normal" in2="BackgroundImageFix" result="effect1_dropShadow_21_321"/>
<feBlend mode="normal" in="SourceGraphic" in2="effect1_dropShadow_21_321" result="shape"/>
</filter>
</defs>
</svg>
