<svg width="17" height="17" viewBox="0 0 17 17" fill="none" xmlns="http://www.w3.org/2000/svg">
<g id="Frame">
<path id="Vector" d="M1.85738 8.71467C1.81137 8.57639 1.81137 8.42694 1.85738 8.28867C2.78205 5.50667 5.40672 3.5 8.50005 3.5C11.592 3.5 14.2154 5.50467 15.142 8.28533C15.1887 8.42333 15.1887 8.57267 15.142 8.71133C14.218 11.4933 11.5934 13.5 8.50005 13.5C5.40805 13.5 2.78405 11.4953 1.85738 8.71467Z" stroke="#606060" stroke-width="0.6" stroke-linecap="round" stroke-linejoin="round"/>
<path id="Vector_2" d="M10.5 8.5C10.5 9.03043 10.2893 9.53914 9.91421 9.91421C9.53914 10.2893 9.03043 10.5 8.5 10.5C7.96957 10.5 7.46086 10.2893 7.08579 9.91421C6.71071 9.53914 6.5 9.03043 6.5 8.5C6.5 7.96957 6.71071 7.46086 7.08579 7.08579C7.46086 6.71071 7.96957 6.5 8.5 6.5C9.03043 6.5 9.53914 6.71071 9.91421 7.08579C10.2893 7.46086 10.5 7.96957 10.5 8.5Z" stroke="#606060" stroke-width="0.6" stroke-linecap="round" stroke-linejoin="round"/>
</g>
</svg>
