<svg width="17" height="17" viewBox="0 0 17 17" fill="none" xmlns="http://www.w3.org/2000/svg">
<g id="Frame">
<path id="Vector" d="M13.5 10V8.25C13.5 7.65326 13.2629 7.08097 12.841 6.65901C12.419 6.23705 11.8467 6 11.25 6H10.25C10.0511 6 9.86032 5.92098 9.71967 5.78033C9.57902 5.63968 9.5 5.44891 9.5 5.25V4.25C9.5 3.65326 9.26295 3.08097 8.84099 2.65901C8.41903 2.23705 7.84674 2 7.25 2H6M6 10.5H11M6 12.5H8.5M7.5 2H4.25C3.836 2 3.5 2.336 3.5 2.75V14.25C3.5 14.664 3.836 15 4.25 15H12.75C13.164 15 13.5 14.664 13.5 14.25V8C13.5 6.4087 12.8679 4.88258 11.7426 3.75736C10.6174 2.63214 9.0913 2 7.5 2Z" stroke="#606060" stroke-width="0.5" stroke-linecap="round" stroke-linejoin="round"/>
</g>
</svg>
